<svg xmlns="http://www.w3.org/2000/svg" xmlns:xlink="http://www.w3.org/1999/xlink" width="375" height="279" viewBox="0 0 375 279">
  <defs>
    <clipPath id="clip-Illustration_Home_Mobile_">
      <rect width="375" height="279"/>
    </clipPath>
  </defs>
  <g id="Illustration_Home_Mobile_" data-name="Illustration Home (Mobile)" clip-path="url(#clip-Illustration_Home_Mobile_)">
    <path id="Path_1" data-name="Path 1" d="M4025.4-707.64h0l.035-101.793-375.206.112-.049,214.637s42.091-35.211,107.468-46.948c4.838-.869,32.31-21.763,70.819-21.763s51.229,3.76,74.705,15.854,29.81,16.651,32.91,24.444c2.022,5.086-1.6,10.485-3.864,15.83-9.949,23.442,13.462,31.12,29.518,30.875a103.258,103.258,0,0,1,63.665,20.462h0Z" transform="translate(-3650.221 809.292)" fill="#0957ff"/>
    <path id="Path_2" data-name="Path 2" d="M4025.727-709.933h0s-4.068,5.089-26.4,10.249-34.981-.723-63.244,12.682-29.145,26.684-41.345,38.364-32.1,14.273-32.1,14.273,71.162,5.534,73.443,11.27c2.022,5.086-1.6,10.485-3.864,15.83-9.949,23.442,13.462,31.12,29.518,30.875a103.258,103.258,0,0,1,63.665,20.462h0Z" transform="translate(4025.691 -487.242) rotate(180)" fill="#0957ff"/>
    <path id="Path_3" data-name="Path 3" d="M5048.118-340.3c-12.9,0-18.867-.395-19.189,3.549-.152,1.857-6.057,5.8-3.21,8.441,3.115,2.891,9.637,5.338,22.892,5.171,25.057-.315,26.059-8.748,25.928-12.653S5061.014-340.3,5048.118-340.3Z" transform="translate(-4718.222 530.065)" fill="#0957ff"/>
    <path id="Path_4" data-name="Path 4" d="M1765.809-1418.249s-.074,3.673,2.5,5.335,10.884,2.651,17.058,6.174,6.981,8.562,6.981,8.562l-12.184,17.321s.543-3.392-5.993-6.915-14.357-3.112-17.453-6.257a17.858,17.858,0,0,1-4.149-6.9Z" transform="translate(-1732.549 1512.46)" fill="#fff"/>
    <path id="Path_5" data-name="Path 5" d="M0,6.683A17.394,17.394,0,0,0,3.175,4.666C4.232,3.919,5.78,2.519,7.069,1.56A12.371,12.371,0,0,1,9.481,0" transform="translate(24.765 106.588) rotate(-21)" fill="#e7ebf6" stroke="#e9eced" stroke-linecap="round" stroke-width="1"/>
    <path id="Path_6" data-name="Path 6" d="M0,6.683A17.394,17.394,0,0,0,3.175,4.666C4.232,3.919,5.78,2.519,7.069,1.56A12.371,12.371,0,0,1,9.481,0" transform="translate(26.256 108.576) rotate(-21)" fill="#e7ebf6" stroke="#e9eced" stroke-linecap="round" stroke-width="1"/>
    <path id="Path_7" data-name="Path 7" d="M0,6.683A17.394,17.394,0,0,0,3.175,4.666C4.232,3.919,5.78,2.519,7.069,1.56A12.371,12.371,0,0,1,9.481,0" transform="translate(29.237 108.079) rotate(-21)" fill="#e7ebf6" stroke="#e9eced" stroke-linecap="round" stroke-width="1"/>
    <path id="Path_8" data-name="Path 8" d="M0,6.683A17.394,17.394,0,0,0,3.175,4.666C4.232,3.919,5.78,2.519,7.069,1.56A12.371,12.371,0,0,1,9.481,0" transform="translate(45.135 118.016) rotate(-21)" fill="#e7ebf6" stroke="#e9eced" stroke-linecap="round" stroke-width="1"/>
    <path id="Path_9" data-name="Path 9" d="M0,6.683A17.394,17.394,0,0,0,3.175,4.666C4.232,3.919,5.78,2.519,7.069,1.56A12.371,12.371,0,0,1,9.481,0" transform="translate(44.142 115.034) rotate(-21)" fill="#e7ebf6" stroke="#e9eced" stroke-linecap="round" stroke-width="1"/>
    <path id="Path_10" data-name="Path 10" d="M0,21.631S10.91,35.775,21.819,47.155a241.312,241.312,0,0,0,21.819,20,53.743,53.743,0,0,1,13.015-11.46c7.571-4.514,17.269-6.6,17.269-6.6S66.395,35.7,58.824,23.425,43.639,0,43.639,0,32.729,9.77,21.819,15.178A70.145,70.145,0,0,1,0,21.631Z" transform="matrix(-0.174, 0.985, -0.985, -0.174, 119.5, 157.166)" fill="#fff"/>
    <path id="Path_11" data-name="Path 11" d="M0,6.789S2.59,5.155,4.844,3.457,9.015,0,9.015,0" transform="matrix(-0.174, 0.985, -0.985, -0.174, 104.637, 186.717)" fill="#e7ebf6" stroke="#e9eced" stroke-linecap="round" stroke-width="2"/>
    <path id="Path_12" data-name="Path 12" d="M0,6.789S2.59,5.155,4.844,3.457,9.015,0,9.015,0" transform="matrix(-0.174, 0.985, -0.985, -0.174, 101.895, 188.559)" fill="#e7ebf6" stroke="#e9eced" stroke-linecap="round" stroke-width="2"/>
    <path id="Path_13" data-name="Path 13" d="M0,18.439s2.2-.428,8.239-5.165c2.417-1.9,5.227-5.647,8.175-8.079A48.548,48.548,0,0,1,23.972,0" transform="matrix(-0.174, 0.985, -0.985, -0.174, 95.392, 178.925)" fill="none" stroke="#e9eced" stroke-linecap="round" stroke-width="2"/>
    <path id="Path_14" data-name="Path 14" d="M1.159,0S4.142,1.142,11.47,1.142c3.048,0,7.256-1,10.828-1.084a38.936,38.936,0,0,1,8.324.693.932.932,0,0,1,.994.855V6.737c0,.472-.87.525-.87.525s-.761-.581-8.089-.581c-3.085,0-7.382.958-11.434,1.152A30.094,30.094,0,0,1,1.474,6.59c-.549,0-.941-.232-.941-.7L0,.688C0,.216.611,0,1.159,0Z" transform="matrix(0.5, 0.866, -0.866, 0.5, 73.797, 176.876)" fill="#e9eced"/>
    <g id="Group_1" data-name="Group 1" transform="translate(-3468 764)">
      <path id="Path_168" data-name="Path 168" d="M5079.827-463.128c-5.4-3.267-21.49.211-38,.334-15.249.114-30.92-3.341-37.406-.334-13.429,6.226-7.569,46.146-7.569,46.146h90.612S5090.276-456.808,5079.827-463.128Z" transform="translate(-1276.347 -182.842)" fill="#fab710"/>
      <path id="Path_169" data-name="Path 169" d="M25.645,0c-5.121.075-6.154,4.306-6.667,6.949-1.35,6.942,8.942,17.9,6.667,21.411a4.482,4.482,0,0,1-2.98,1.693C16.893,31.246,3.02,23.649.572,27.892-1.16,30.9.737,36.662,10.493,42c4.306,2.356,11.15,5.662,18.235,6.423a15.364,15.364,0,0,0,7.9-1.092C60.3,36.907,44.9-.28,25.645,0Z" transform="translate(3764.167 -670.149) rotate(45)" fill="#ffd336"/>
      <path id="Path_170" data-name="Path 170" d="M.446,0,28.052,1.112a2.5,2.5,0,0,1,0,5L1.122,7.94c-1.381,0,.211-2.715.211-4.1S-.935,0,.446,0Z" transform="translate(3740.055 -567.488) rotate(103)" fill="#0d1c83"/>
      <path id="Path_171" data-name="Path 171" d="M3.43,0l25.72,2.653a2.5,2.5,0,0,1,0,5L.342,7.533c-1.381,0,1.873-1.617,1.873-3S2.048,0,3.43,0Z" transform="matrix(0.259, 0.966, -0.966, 0.259, 3797.853, -570.554)" fill="#0d1c83"/>
      <g id="Group_22" data-name="Group 22" transform="translate(3708.388 -626.958)">
        <path id="Path_31" data-name="Path 31" d="M-44.534.611C-35.186.256-32.67,8.819-28.57,19.3c2.355,6.019,4.968,12.852,10.646,18.622C-14,41.9-2.279,41.836-2.279,41.836H10.108L9.489,61.558h0c-17.7.1-35.955.46-41.3-.768S-42.736,49.862-46.476,37.92C-51.783,20.969-53.258.943-44.534.611Z" transform="translate(50.768 -0.601)" fill="#ffd336"/>
        <path id="Path_32" data-name="Path 32" d="M10.426.611C1.079.256-1.437,8.819-5.538,19.3c-2.355,6.019-4.968,12.852-10.646,18.622-3.92,3.983-15.645,3.916-15.645,3.916H-44.216l.619,19.722h0c17.7.1,35.955.46,41.3-.768S8.629,49.862,12.368,37.92C17.676,20.969,19.15.943,10.426.611Z" transform="translate(97.475 -0.601)" fill="#ffd336"/>
      </g>
      <path id="Path_172" data-name="Path 172" d="M5060.024-340.3c-19.521,0-28.56-.6-29.048,5.372-.23,2.812-9.169,8.781-4.86,12.778,4.717,4.376,14.587,8.08,34.653,7.828,37.93-.476,39.447-13.242,39.249-19.154S5079.545-340.3,5060.024-340.3Z" transform="translate(-1295.581 -263.033)" fill="#0957ff"/>
      <path id="Path_173" data-name="Path 173" d="M4952.257,599.92a12.975,12.975,0,0,0-.286,2.616,19.015,19.015,0,0,0,.286,2.94,44.8,44.8,0,0,0-1.743,15.107,50.108,50.108,0,0,0,3.507,13.934h0l-5.391,11.51h0l15.707,9.678s9.991,4.827,13.994,2.5c2.814-1.635,7.873-7.751,7.873-7.751h0c4.193-6.706,5.981-16.8,2.932-30.266-6.5-28.712-31.334-25.421-31.334-25.421a7.024,7.024,0,0,1-1.619-2.044,7.7,7.7,0,0,1-.621-2.611Z" transform="translate(-1182.938 -1248.685)" fill="#e1a90c"/>
      <path id="Path_174" data-name="Path 174" d="M3747.016-80.481a27.207,27.207,0,0,0,1.412,5.268c.8,1.9,1.783,2.736,3.091,1.386s2.552-6.493,3.08-11.135c.54-4.745.708-6.442.022-8.77a9.8,9.8,0,0,0-2.631-3.708c-.353-.36-.608-.67-.608-.67Z" transform="translate(-2.979 -429.425)" fill="#001067" stroke="#011166" stroke-width="1"/>
      <path id="Path_175" data-name="Path 175" d="M3569.041-219.628s-9.274,7.375-5.108,8.349,10.668-2.69,16.165-6.073c3.748-2.307,4.95-4.711,5.34-6,.137-.447.259-.821.259-.821Z" transform="translate(115.387 -348.4)" fill="#001067" stroke="#011166" stroke-width="1"/>
      <path id="Path_176" data-name="Path 176" d="M4851.611,557.737s12.857-17.561-6.633-24.093c-11.246-3.769-16.8,3.98-17.9,7.843s.129,6.839,0,7.523,1.064,2.3-4.564,6.364c-7.763,5.6-18.479,4.018-27.1,6.47-8.721,2.48-15.146,9.053-11.23,18.312,4.307,10.186,28.6,14.039,44.223,2.686A86.517,86.517,0,0,0,4851.611,557.737Z" transform="translate(-1076.487 -1212.099)" fill="#0e1d84"/>
      <path id="Path_177" data-name="Path 177" d="M12.769,3.516a9.294,9.294,0,0,1-4.312-.789C5.782,1.738,2.055-.94.663.489c-.874.9-.894,2.821,0,5.029C1.14,6.694,2.472,8.011,2.717,9.282a8.352,8.352,0,0,1-1,5.571,2.49,2.49,0,0,0,1.206.853,6.778,6.778,0,0,0,2.185.369,17.8,17.8,0,0,0,3.854,4.488c1.971,1.369,3.58,1.384,4.028.989h0a24.589,24.589,0,0,0,4.489-6.7,18.853,18.853,0,0,0,1.526-7.838C18.9,4.773,18.406.977,16.586.277,12.827-1.169,12.769,3.516,12.769,3.516Z" transform="matrix(0.966, 0.259, -0.259, 0.966, 3755.434, -667.258)" fill="#ff7c68"/>
      <rect id="Rectangle_231" data-name="Rectangle 231" width="4.287" height="16.077" rx="2.144" transform="translate(3733.314 -658.969)" fill="#fff"/>
      <g id="Ellipse_123" data-name="Ellipse 123" transform="translate(3728.669 -680.047)" fill="none" stroke="#fff" stroke-width="2">
        <ellipse cx="6.609" cy="9.289" rx="6.609" ry="9.289" stroke="none"/>
        <ellipse cx="6.609" cy="9.289" rx="5.609" ry="8.289" fill="none"/>
      </g>
      <rect id="Rectangle_232" data-name="Rectangle 232" width="2.144" height="5.716" transform="translate(3734.385 -662.541)" fill="#fff"/>
      <path id="Path_178" data-name="Path 178" d="M1238.087,282.825a8.782,8.782,0,0,0-5.693-4.726c-4-.854-9.316-1.41-9.2,4.454s6.084,2.951,6.084,2.951,2.406-1.384,3.459-.288,1.139,3.872,1.139,3.872Z" transform="translate(2507.691 -932.049)" fill="#ff7c68"/>
      <path id="Path_179" data-name="Path 179" d="M28.112,4.852l.157-1.308-3.735-.758h0a4.693,4.693,0,0,1-1.869.678C16.893,4.655,3.02-2.942.572,1.3c-1.733,3,.165,8.77,9.921,14.108a68.734,68.734,0,0,0,8.333,3.909h0s1.032-5.579,4.051-5.255c2.636.283-1.347.548,1.2-.576C47.746,3.064,28.112,4.852,28.112,4.852Z" transform="translate(3745.365 -651.347) rotate(45)" fill="#ffd336"/>
      <path id="Path_200" data-name="Path 200" d="M4796.381,698.112h0s-10.651-12.582-23.674-8.083c-5.589,1.931-15.449,10.779-26.746,20.768-10.466,9.254-21.56,19.1-29.727,27.36-3.387,3.428-15.288,12.392-12.426,14.189s13.246-2.961,19.034-7.24c4.051-3,3.4-6.478,5.649-9.951.88-1.358,5.516-3.749,11.973-8.491s13.851-10.476,13.851-10.476a83.47,83.47,0,0,0,0,25.723c2.212,14.081,4.628,15.709,7.917,29.014,2.631,10.644,2.946,13.315,4.158,19.012.274,1.286.625,2.865,1.082,4.8.8,3.4,1.377,6.27,1.917,8.658.934,4.128,1.7,6.394,3.354,6.394,2.552,0,5.012-10.325,4.543-19.042-.246-4.55-3.286-4.582-5.05-8.716s-1.828-5.761-1.828-5.761-10.333-44.15-.738-56.966c5.5-7.344,13.2-4.957,20.973-1.212,5.677,2.735,11.19,6.386,17.043,6.514,4.1.09,9-.475,13.006-2.8a22.78,22.78,0,0,0,7.93-7.844c.033-.054.126-.186.126-.186a45.5,45.5,0,0,1-17.283-3.96c-8.092-3.915-15.083-11.7-15.083-11.7Z" transform="translate(-1025.299 -1312.279)" fill="#0e1d84"/>
      <path id="Path_201" data-name="Path 201" d="M5271.08-167.406,5274-154.258s1.479,1.165,2.766-3.263,2.059-14.143,2.059-14.143a11.231,11.231,0,0,1-1.716-2.369,25.861,25.861,0,0,1-1.416-3.316s-1.238,3.378-2.251,5.8A19.737,19.737,0,0,1,5271.08-167.406Z" transform="translate(-1529.879 -355.273)" fill="#d8615b" stroke="#d8615b" stroke-width="1"/>
      <path id="Path_202" data-name="Path 202" d="M5126.407-301.573a16.4,16.4,0,0,0-1.243,1.865,9.209,9.209,0,0,0-.792,1.811c-.286.767-.46,1.339-.46,1.339s-8.921,4.432-13.307,5.644-3.906-.536-3.906-.536l4.291-3.883,3.426-3.1s3.074-.719,6.024-1.507S5126.407-301.573,5126.407-301.573Z" transform="translate(-1422.786 -276.144)" fill="#d8615b" stroke="#d8615b" stroke-width="1"/>
      <path id="Path_203" data-name="Path 203" d="M1266.577,368.373c-.171-.171-5.636-5.847-9.907-5.62s-9,2.659-9.338,5.62,5.509-.413,9.338.342,7.629,3.872,7.629,3.872Z" transform="translate(2492.182 -986.794)" fill="#ff7c68"/>
      <path id="Path_204" data-name="Path 204" d="M4943.039,622.954c-5.121.075-6.154,4.307-6.667,6.949-1.351,6.942,8.941,17.9,6.667,21.411a4.48,4.48,0,0,1-2.98,1.693c-5.772,1.191-19.645-6.406-22.093-2.163-1.732,3,.165,8.77,9.921,14.108,4.306,2.356,11.15,5.662,18.235,6.423a15.366,15.366,0,0,0,7.9-1.092C4977.69,659.86,4962.29,622.672,4943.039,622.954Z" transform="translate(-1162.504 -1269.791)" fill="#ffd336"/>
    </g>
    <path id="Path_15" data-name="Path 15" d="M2204.029,73.5s10.91,14.144,21.819,25.523a241.331,241.331,0,0,0,21.819,20,53.75,53.75,0,0,1,13.014-11.46c7.571-4.514,17.27-6.6,17.27-6.6s-7.528-13.395-15.1-25.668-15.185-23.426-15.185-23.426-10.91,9.77-21.819,15.178A70.145,70.145,0,0,1,2204.029,73.5Z" transform="translate(-2059.418 51.586)" fill="#fff"/>
    <path id="Path_16" data-name="Path 16" d="M2267.409,77.581s2.59-1.635,4.844-3.332,4.171-3.457,4.171-3.457" transform="translate(-2091.309 41.07)" fill="#e7ebf6" stroke="#e9eced" stroke-linecap="round" stroke-width="2"/>
    <path id="Path_17" data-name="Path 17" d="M2267.409,77.581s2.59-1.635,4.844-3.332,4.171-3.457,4.171-3.457" transform="translate(-2088.825 44.548)" fill="#e7ebf6" stroke="#e9eced" stroke-linecap="round" stroke-width="2"/>
    <path id="Path_18" data-name="Path 18" d="M2267.409,89.742s1.861-.856,7.9-5.594c2.417-1.9,5.956-5.445,8.9-7.877a84.968,84.968,0,0,1,7.363-5.479" transform="translate(-2097.768 52.261)" fill="#e7ebf6" stroke="#e9eced" stroke-linecap="round" stroke-width="2"/>
    <path id="Path_19" data-name="Path 19" d="M2267.409,91s1.861-.856,7.9-5.594c2.417-1.9,5.956-5.445,8.9-7.877a36.55,36.55,0,0,1,5.823-4.234" transform="translate(-2085.844 63.917)" fill="#e7ebf6" stroke="#e9eced" stroke-linecap="round" stroke-width="2"/>
    <path id="Path_20" data-name="Path 20" d="M2268.71,90.8s1.215-.378,7.257-5.116c2.417-1.895,5.956-5.445,8.9-7.877,4.135-3.411,5.512-3.958,5.512-3.958" transform="translate(-2084.015 67.115)" fill="#e7ebf6" stroke="#e9eced" stroke-linecap="round" stroke-width="2"/>
    <g id="Path_21" data-name="Path 21" transform="matrix(0.766, -0.643, 0.643, 0.766, 173.168, 147.089)" fill="#e9eced">
      <path d="M 10.02221488952637 7.360798358917236 C 5.446464538574219 7.360798358917236 1.66871452331543 6.127748489379883 1.631084442138672 6.115288734436035 L 1.554564476013184 6.089958667755127 L 1.473954439163208 6.089958667755127 C 1.032804489135742 6.089958667755127 1.032804489135742 5.941678524017334 1.032804489135742 5.885858535766602 L 1.032804489135742 5.860298633575439 L 1.030194520950317 5.834878444671631 L 0.5022135376930237 0.683942973613739 C 0.5346205234527588 0.6322047114372253 0.7383913993835449 0.5179867744445801 1.078409314155579 0.5018963217735291 C 1.659022688865662 0.7006160616874695 4.765082359313965 1.642258524894714 11.47001457214355 1.642258524894714 C 13.03774452209473 1.642258524894714 14.86026477813721 1.389388561248779 16.789794921875 1.121668577194214 C 18.64494514465332 0.8642685413360596 20.5632438659668 0.5981085300445557 22.31003379821777 0.5577885508537292 C 22.59352493286133 0.5512385368347168 22.88294410705566 0.5479285717010498 23.17025375366211 0.5479285717010498 C 27.31570434570313 0.5479285717010498 30.48392486572266 1.232078552246094 30.51543426513672 1.238988518714905 L 30.5683536529541 1.250588536262512 L 30.62252426147461 1.250588536262512 C 30.89011383056641 1.250588536262512 31.11617469787598 1.413228511810303 31.11617469787598 1.605748534202576 L 31.11617469787598 6.664628505706787 C 31.05399131774902 6.69722318649292 30.93947982788086 6.730319976806641 30.82640075683594 6.749020576477051 C 29.89089393615723 6.390883922576904 26.91435050964355 6.180888652801514 22.6571044921875 6.180888652801514 C 21.01656532287598 6.180888652801514 19.06015396118164 6.443588733673096 16.98886489868164 6.721718788146973 C 15.08653450012207 6.977158546447754 13.11944484710693 7.241288661956787 11.19969463348389 7.33305835723877 C 10.81451416015625 7.351468563079834 10.41835403442383 7.360798358917236 10.02221488952637 7.360798358917236 Z" stroke="none"/>
      <path d="M 1.038745880126953 1.014805793762207 L 1.507715225219727 5.589958667755127 L 1.635173797607422 5.589958667755127 L 1.788213729858398 5.640618324279785 C 1.825075149536133 5.652828216552734 5.526153564453125 6.860798835754395 10.02221488952637 6.860798835754395 C 10.41038513183594 6.860798835754395 10.79852485656738 6.851658821105957 11.17581367492676 6.83362865447998 C 13.07414436340332 6.742888450622559 15.03044509887695 6.480198383331299 16.92232513427734 6.226158618927002 C 19.01064491271973 5.945748329162598 20.98314476013184 5.680888652801514 22.6571044921875 5.680888652801514 C 25.73958396911621 5.680888652801514 28.06867408752441 5.781418800354004 29.57967376708984 5.979678630828857 C 30.02985572814941 6.03874683380127 30.36417961120605 6.101274490356445 30.61616516113281 6.163846015930176 L 30.61616516113281 1.750582218170166 L 30.51418495178223 1.750478744506836 L 30.40880393981934 1.72748851776123 C 30.37766456604004 1.720688343048096 27.24763488769531 1.047838687896729 23.17025375366211 1.047928333282471 C 22.88665390014648 1.047928333282471 22.60111427307129 1.051198482513428 22.32157516479492 1.057648658752441 C 20.6035041809082 1.097318649291992 18.69966506958008 1.361468315124512 16.8585147857666 1.616928577423096 C 14.9113941192627 1.887078762054443 13.07226371765137 2.142258644104004 11.47001457214355 2.142258644104004 C 5.091804504394531 2.142258644104004 1.896053314208984 1.287569522857666 1.038745880126953 1.014805793762207 M 1.159463882446289 -1.9073486328125e-06 C 1.159463882446289 -1.9073486328125e-06 4.141843795776367 1.142258644104004 11.47001457214355 1.142258644104004 C 14.51851463317871 1.142258644104004 18.72649383544922 0.140378475189209 22.29849433898926 0.05791854858398438 C 22.59310150146484 0.05111932754516602 22.88442420959473 0.04793119430541992 23.17025375366211 0.04792499542236328 C 27.41783142089844 0.04783964157104492 30.62252426147461 0.7505884170532227 30.62252426147461 0.7505884170532227 C 31.17130470275879 0.7505884170532227 31.61616516113281 1.133458614349365 31.61616516113281 1.605748653411865 L 31.61616516113281 6.736678600311279 C 31.61616516113281 7.208968639373779 30.74592399597168 7.261468410491943 30.74592399597168 7.261468410491943 C 30.74592399597168 7.261468410491943 29.98526382446289 6.680888652801514 22.6571044921875 6.680888652801514 C 19.57195472717285 6.680888652801514 15.27544403076172 7.638798713684082 11.22356414794922 7.832488536834717 C 10.81839561462402 7.851853370666504 10.41691207885742 7.860802173614502 10.02221298217773 7.860802173614502 C 5.312923431396484 7.860802173614502 1.473955154418945 6.589958667755127 1.473955154418945 6.589958667755127 C 0.9251747131347656 6.589958667755127 0.5328044891357422 6.358148574829102 0.5328044891357422 5.885858535766602 L -5.7220458984375e-06 0.6879086494445801 C -5.7220458984375e-06 0.2156186103820801 0.6106948852539063 -1.9073486328125e-06 1.159463882446289 -1.9073486328125e-06 Z" stroke="none" fill="#e9eced"/>
    </g>
    <path id="Path_22" data-name="Path 22" d="M2440.872,332.277l27.826,25.6s18.615-17.975,29.05-26.378,12.688-7.235,12.688-7.235a58,58,0,0,0-11.241-1.892c-8.814-.817-22.448-1.094-31.944,0C2449.859,324.375,2440.872,332.277,2440.872,332.277Z" transform="translate(-2152.225 -141.869)" fill="#fff"/>
    <path id="Path_23" data-name="Path 23" d="M2440.872,332.277s8.534-6.652,22.753-6.847,20.769,8.864,20.769,8.864l26.041-10.03a58,58,0,0,0-11.241-1.892c-8.814-.817-22.448-1.094-31.944,0C2449.859,324.375,2440.872,332.277,2440.872,332.277Z" transform="translate(-2152.225 -141.869)" fill="#e9eced"/>
  </g>
</svg>
